# xmcd CD database file
#
# Track frame offsets:
#	150
#	7783
#	46496
#	79558
#	88608
#	124226
#	145973
#	160301
#	186428
#	225393
#	242203
#	266003
#
# Disc length: 3704 seconds
#
# Revision: 0
# Processed by: cddbd v1.5.2PL0 Copyright (c) Steve Scherf et al.
# Submitted via: CDex 1.70beta2
#
DISCID=980e760c
DTITLE=Gianluigi Trovesi - Asymmetrique
DYEAR=2004
DGENRE=Jazz
TTITLE0=La Banda
TTITLE1=Tribù Trovesi
TTITLE2=Il Femminile
TTITLE3=Contromano
TTITLE4=Ninna Langna
TTITLE5=In fede Walzer
TTITLE6=D'altraparte
TTITLE7=Circo
TTITLE8=Sempre Tango
TTITLE9=Charlie
TTITLE10=Nivolartella
TTITLE11=Finale
EXTD=YEAR: 2004
EXTT0=
EXTT1=
EXTT2=
EXTT3=
EXTT4=
EXTT5=
EXTT6=
EXTT7=
EXTT8=
EXTT9=
EXTT10=
EXTT11=
PLAYORDER=
